<svg xmlns="http://www.w3.org/2000/svg" width="90" height="90" viewBox="0 0 90 90">
    <g fill="none" fill-rule="evenodd">
        <path fill="#FEFEFE" d="M45.768 64.091a1.592 1.592 0 0 1-1.589-1.59c0-.877.713-1.59 1.59-1.59.876 0 1.59.713 1.59 1.59 0 .876-.714 1.59-1.59 1.59"/>
        <path fill="#FC6C57" fill-rule="nonzero" d="M60.064 55.769l16.965 20.28a2.984 2.984 0 0 1-.374 4.192l-.71.591a2.98 2.98 0 0 1-4.188-.37L54.791 60.178a2.987 2.987 0 0 1 .374-4.196l.71-.59a2.976 2.976 0 0 1 4.189.376zm-3.227.775l-.711.59c-.62.52-.704 1.461-.184 2.083l16.965 20.281a1.48 1.48 0 0 0 2.077.183l.71-.591c.62-.52.704-1.456.184-2.08L58.911 56.73a1.477 1.477 0 0 0-2.074-.185z"/>
        <path fill="#FEFEFE" d="M63.462 20.243C53.727 8.32 36.17 6.55 24.247 16.284c-11.925 9.734-13.7 27.29-3.965 39.215 9.74 11.925 27.296 13.694 39.22 3.96 11.92-9.736 13.694-27.292 3.96-39.216"/>
        <path fill="#3E78C0" fill-rule="nonzero" d="M64.236 19.611c10.083 12.351 8.247 30.537-4.101 40.623-12.354 10.084-30.54 8.25-40.628-4.102-10.084-12.353-8.245-30.54 4.107-40.622C35.967 5.425 54.153 7.26 64.236 19.61zm-1.549 1.265C53.302 9.38 36.377 7.673 24.879 17.059c-11.497 9.384-13.208 26.31-3.823 37.808 9.39 11.496 26.316 13.204 37.814 3.818 11.492-9.387 13.201-26.314 3.817-37.81z"/>
        <path fill="#3E78C0" fill-rule="nonzero" d="M57.9 24.785a20.687 20.687 0 0 0-21.62-6.838l.404 1.445a19.187 19.187 0 0 1 20.054 6.342l1.162-.949z"/>
    </g>
</svg>
