<svg xmlns="http://www.w3.org/2000/svg" width="90" height="90" viewBox="0 0 90 90">
    <g fill="none" fill-rule="evenodd">
        <path fill="#FC6C57" d="M78.23 47.408L65.937 22.477l9.006-4.326 12.292 24.933-9.007 4.324zm11.735-3.964l-13.35-27.118c-.135-.265-.41-.526-.613-.577a1.163 1.163 0 0 0-.97.056l-11.21 5.39a1.117 1.117 0 0 0-.617.668c-.099.294-.068.608.085.88l12.964 26.354-4.283 3.963a50.192 50.192 0 0 1-12.353 8.348l-21.378 10.4a2.373 2.373 0 0 1-3.173-1.057 2.344 2.344 0 0 1 1.06-3.166l11.954-5.852a1.12 1.12 0 0 0 .62-.67 1.077 1.077 0 0 0-.086-.88 1.141 1.141 0 0 0-.682-.636 1.103 1.103 0 0 0-.894.084l-17.578 8.555a2.374 2.374 0 0 1-3.17-1.057c-.189-.464-.387-1.11-.11-1.796a2.664 2.664 0 0 1 1.135-1.352l4.523-2.157 12.693-6.22c.301-.133.521-.376.62-.67a1.082 1.082 0 0 0-.085-.88 1.147 1.147 0 0 0-.682-.637 1.11 1.11 0 0 0-.894.084l-19.354 9.394c-.457.181-1.104.375-1.792.105-.599-.239-1.044-.608-1.359-1.13a2.362 2.362 0 0 1-.15-1.835c.2-.597.622-1.082 1.192-1.365l2.155-1.026 15.401-7.52c.301-.134.52-.375.62-.67a1.082 1.082 0 0 0-.085-.88 1.144 1.144 0 0 0-.682-.636 1.118 1.118 0 0 0-.894.084l-15.435 7.537a2.376 2.376 0 0 1-3.167-1.06c-.626-1.653-.202-3.096 1.06-3.724l8.125-3.993c.302-.134.521-.375.62-.67a1.082 1.082 0 0 0-.085-.88 1.141 1.141 0 0 0-.682-.636 1.1 1.1 0 0 0-.894.083l-8.143 4.003a4.845 4.845 0 0 0-2.458 2.822 4.643 4.643 0 0 0 .252 3.577c.32.633.812 1.238 1.467 1.797l.355.301-.284.37c-1.139 1.482-1.334 3.418-.51 5.054.608 1.212 1.55 2.035 2.797 2.449a4.852 4.852 0 0 0 1.526.252h.49v.492a4.9 4.9 0 0 0 .508 2.194c.838 1.666 2.495 2.702 4.324 2.702.697 0 1.468-.184 2.115-.507l1.825-.838.093.65c.092.64.177 1.14.432 1.734a4.823 4.823 0 0 0 4.311 2.675c.7 0 1.47-.184 2.116-.506l21.386-10.404a56.177 56.177 0 0 0 12.958-8.745l4.876-4.442 10.924-5.293c.3-.133.518-.374.617-.67a1.083 1.083 0 0 0-.084-.878l-.013-.024z"/>
        <path fill="#3E78C0" d="M11.44 47.377l-9.426-3.194 9.098-26.279 9.425 3.194-9.098 26.28zM30.632 21.98l1.105-.55c1.512-.7 3.322-.813 4.855-.305l21.987 7.574-.096.428c-.103.462-.532 2.034-1.7 2.808-1.07.745-2.603.765-4.548.052L42.63 28.74c-.306-.122-.617-.094-1.062.084-.225.114-.49.468-.546.685.015.233-1.552 5.277-5.84 7.647-2.854 1.47-6.31 1.542-10.289.221-.65-.193-1.329.117-1.529.713-.194.644.12 1.316.717 1.515 4.74 1.572 9.011 1.414 12.216-.336 3.826-2.042 5.657-5.549 6.408-7.458l.17-.433 8.472 2.841c2.717.96 4.894.827 6.66-.402 2.837-2.003 2.964-5.967 2.964-6.006 0-.52-.33-1.01-.823-1.222l-22.843-7.88a8.433 8.433 0 0 0-6.709.436l-1.129.562c-1.516.702-3.312.813-4.939.306l-2.065-.769a1.223 1.223 0 0 1-.249-.096l-11.703-3.967c-.649-.19-1.325.116-1.525.713L-.872 44.387c.02.123.033.243.047.358.04.312.073.582.167.77.138.274.408.53.615.581L11.76 50.1c.583.271 1.352-.114 1.52-.692l9.4-27.397 1.133.324c2.15.771 4.634.64 6.82-.356z"/>
        <path fill="#3E78C0" d="M9.652 42.075a1.498 1.498 0 1 0-2.996 0 1.498 1.498 0 0 0 2.996 0"/>
        <path fill="#FC6C57" d="M82.296 40.578a1.498 1.498 0 1 0-2.995 0 1.498 1.498 0 0 0 2.995 0"/>
    </g>
</svg>
